<svg xmlns="http://www.w3.org/2000/svg" version="1.1" xmlns:xlink="http://www.w3.org/1999/xlink" xmlns:svgjs="http://svgjs.com/svgjs" width="512" height="512" x="0" y="0" viewBox="0 0 512 512" style="enable-background:new 0 0 512 512" xml:space="preserve" className=""><g><g xmlns="http://www.w3.org/2000/svg"><g><path d="m323.5 139.076c-22.593-13.05-45.273-23.815-67.5-32.391-99.587-38.425-189.908-31.811-220.84 21.815-37.851 65.552 29.502 172.91 153.34 244.409 19.532 11.276 42.79 22.218 67.5 31.522 83.258 31.348 183.814 43.215 220.84-20.931 37.837-65.552-29.517-172.91-153.34-244.424zm127.354 229.424c-29 50.229-123.219 32.159-194.854 3.446-19.825-7.945-38.018-16.659-52.5-25.023-105.615-60.982-170.815-154.131-142.354-203.423 28.834-49.922 123.014-32.162 194.854-3.435 19.777 7.908 37.96 16.6 52.5 24.998 105.615 60.981 170.815 154.145 142.354 203.437z" fill="#478c5c" data-original="#47568c" className=""></path><path d="m476.84 383.5c37.837-65.552-29.517-172.91-153.34-244.424-22.593-13.05-45.273-23.815-67.5-32.391v33.38c19.777 7.908 37.96 16.6 52.5 24.998 105.615 60.981 170.815 154.145 142.354 203.437-29 50.229-123.219 32.159-194.854 3.446v32.485c83.258 31.347 183.814 43.215 220.84-20.931z" fill="#296f11" data-original="#29376d" className=""></path><path d="m476.84 128.5c-30.969-53.602-121.258-60.222-220.84-21.806-22.225 8.575-44.905 19.336-67.5 32.382-123.823 71.514-191.177 178.872-153.34 244.424 37.139 64.29 137.89 52.11 220.84 20.907 24.798-9.329 48.078-20.284 67.5-31.498 123.838-71.499 191.191-178.857 153.34-244.409zm-168.34 218.423c-14.539 8.397-32.721 17.13-52.5 25.093-71.71 28.867-165.707 46.968-194.854-3.516-28.461-49.292 36.739-142.456 142.354-203.437 17.437-10.065 35.063-18.6 52.5-25.845 88.2-36.65 171.114-36.898 194.854 4.283 28.461 49.291-36.739 142.44-142.354 203.422z" fill="#316497" data-original="#66b3ff" className=""></path><path d="m476.84 128.5c-30.969-53.602-121.258-60.222-220.84-21.806v32.523c88.2-36.65 171.114-36.898 194.854 4.283 28.462 49.292-36.738 142.441-142.354 203.423-14.539 8.397-32.721 17.13-52.5 25.093v32.391c24.798-9.329 48.078-20.284 67.5-31.498 123.838-71.499 191.191-178.857 153.34-244.409z" fill="#537ed5" data-original="#4d88ff" className=""></path><path d="m256 0c-75.703 0-135 113.002-135 256s59.297 256 135 256 135-113.002 135-256-59.297-256-135-256zm0 482c-56.909 0-105-104.037-105-226s48.091-226 105-226 105 104.037 105 226-48.091 226-105 226z" fill="#00b540" data-original="#fed843" className=""></path><path d="m391 256c0-142.998-59.297-256-135-256v30c56.909 0 105 104.037 105 226s-48.091 226-105 226v30c75.703 0 135-113.002 135-256z" fill="#1bdd60" data-original="#fabe2c" className=""></path></g><g><path d="m301 208c0 14.25-6.86 27.8-18.34 36.25-7.3 5.38-11.66 13.99-11.66 23.04v15.71h-30v-15.71c0-14.5 5.46-28.46 15-39.12 2.65-2.97 5.62-5.68 8.88-8.08 3.89-2.86 6.12-7.27 6.12-12.09 0-8.27-6.73-15-15-15s-15 6.73-15 15v15h-30v-15c0-24.81 20.19-45 45-45s45 20.19 45 45z" fill="#00b540" data-original="#fed843" className=""></path></g><g><path d="m241 313h30v30h-30z" fill="#00b540" data-original="#fed843" className=""></path></g><g fill="#fabe2c"><path d="m256 313h15v30h-15z" fill="#1bdd60" data-original="#fabe2c" className=""></path><path d="m301 208c0 14.25-6.86 27.8-18.34 36.25-7.3 5.38-11.66 13.99-11.66 23.04v15.71h-15v-54.83c2.65-2.97 5.62-5.68 8.88-8.08 3.89-2.86 6.12-7.27 6.12-12.09 0-8.27-6.73-15-15-15v-30c24.81 0 45 20.19 45 45z" fill="#1bdd60" data-original="#fabe2c" className=""></path></g></g></g></svg>